<?xml version="1.0" standalone="no"?>
<!DOCTYPE svg PUBLIC "-//W3C//DTD SVG 20010904//EN"
 "http://www.w3.org/TR/2001/REC-SVG-20010904/DTD/svg10.dtd">
<svg version="1.0" xmlns="http://www.w3.org/2000/svg"
 width="260.000000pt" height="260.000000pt" viewBox="0 0 260.000000 260.000000"
 preserveAspectRatio="xMidYMid meet">
<metadata>
Created by potrace 1.14, written by Peter Selinger 2001-2017
</metadata>
<g transform="translate(0.000000,260.000000) scale(0.100000,-0.100000)"
fill="#000000" stroke="none">
<path d="M0 1300 l0 -1300 1300 0 1300 0 0 1300 0 1300 -1300 0 -1300 0 0
-1300z m2114 889 c17 -14 26 -30 26 -49 0 -52 -34 -75 -190 -125 -80 -26 -155
-56 -167 -67 -20 -19 -22 -30 -25 -202 -3 -164 -5 -185 -25 -223 -27 -51 -82
-96 -132 -112 -55 -16 -769 -15 -825 1 -54 16 -131 93 -145 144 -6 22 -11 103
-11 180 0 128 2 144 21 168 l20 26 473 0 473 0 12 41 c7 24 30 59 55 84 38 38
60 48 207 98 90 30 174 56 185 56 12 1 33 -8 48 -20z m-967 -881 c62 -35 78
-70 81 -193 4 -101 2 -112 -18 -137 -16 -21 -30 -28 -57 -28 -62 0 -73 19 -73
127 l0 93 -239 0 c-237 0 -240 0 -267 23 -47 41 -29 118 30 130 11 3 131 4
266 4 212 -2 249 -4 277 -19z m863 9 c41 -14 59 -52 44 -94 -17 -49 -39 -53
-291 -53 l-233 0 0 -86 c0 -97 -8 -118 -48 -132 -34 -12 -85 6 -96 33 -12 33
-7 225 8 253 21 40 60 73 98 82 53 13 478 10 518 -3z m-1090 -913 l5 -71 30
38 c22 27 38 38 58 39 l28 0 -23 -30 c-12 -16 -24 -30 -27 -30 -4 0 -12 -9
-19 -21 -12 -19 -9 -26 28 -70 l41 -49 -28 1 c-20 0 -37 11 -60 41 l-33 40 -1
-33 c-1 -19 -1 -37 0 -41 0 -5 -10 -8 -24 -8 l-24 0 1 128 c1 70 3 131 6 135
2 4 11 7 20 5 13 -3 18 -19 22 -74z m-606 44 c14 -6 33 -22 41 -35 15 -22 15
-23 -15 -23 -16 0 -30 4 -30 9 0 5 -13 14 -30 21 -24 10 -36 10 -60 0 -37 -15
-50 -37 -50 -85 0 -50 14 -71 56 -85 32 -11 39 -10 65 9 29 21 69 28 69 12 0
-5 -14 -21 -31 -35 -60 -51 -164 -24 -195 51 -21 50 -10 99 31 140 28 28 40
33 79 33 25 0 56 -5 70 -12z m1145 -14 c38 -31 39 -44 6 -44 -14 0 -25 4 -25
9 0 15 -56 32 -84 25 -47 -12 -71 -72 -51 -132 14 -46 106 -62 130 -23 8 13
55 15 55 2 0 -5 -14 -21 -32 -36 -28 -24 -39 -27 -85 -23 -88 8 -140 81 -114
161 28 85 134 117 200 61z m-906 -36 c35 -18 46 -40 46 -88 0 -67 -34 -100
-102 -100 -93 0 -131 131 -53 185 25 18 79 19 109 3z m230 0 c35 -18 46 -40
47 -86 0 -86 -96 -134 -163 -82 -48 38 -44 130 7 165 25 18 79 19 109 3z m417
-8 c11 -11 20 -24 20 -30 0 -15 -31 -12 -51 6 -21 19 -62 10 -57 -13 2 -9 21
-22 42 -29 50 -18 66 -32 66 -57 0 -35 -29 -57 -76 -57 -34 0 -47 5 -64 28
l-22 27 21 3 c12 2 28 -4 37 -12 17 -18 24 -19 48 -10 28 11 17 32 -21 44 -70
23 -92 62 -56 102 23 25 87 24 113 -2z m499 -6 c26 -22 31 -33 31 -71 0 -36
-6 -50 -29 -74 -79 -79 -204 8 -161 112 27 64 104 80 159 33z m118 15 c8 -8
13 -8 17 0 11 17 46 13 46 -4 0 -9 -11 -20 -25 -25 -32 -12 -37 -27 -39 -98
-1 -51 -3 -57 -23 -60 -23 -3 -23 -1 -23 97 0 91 2 101 18 101 10 0 23 -5 29
-11z m133 1 c0 -7 6 -7 19 0 31 16 79 12 101 -10 17 -17 20 -33 20 -100 0 -73
-2 -80 -20 -80 -18 0 -20 7 -20 69 0 95 -33 128 -80 81 -16 -16 -20 -33 -20
-85 0 -58 -2 -65 -20 -65 -19 0 -20 7 -20 100 0 93 1 100 20 100 11 0 20 -5
20 -10z m345 -13 c18 -15 27 -33 28 -57 l2 -35 -72 -3 c-75 -3 -85 -9 -57 -36
19 -20 44 -20 70 -1 20 15 54 20 54 8 0 -4 -10 -17 -22 -30 -46 -49 -148 -20
-163 47 -8 38 11 96 38 115 32 23 91 19 122 -8z m115 13 c0 -7 6 -7 19 0 28
15 41 12 41 -8 0 -10 -12 -22 -30 -29 -29 -11 -30 -13 -30 -82 0 -64 -2 -71
-20 -71 -19 0 -20 7 -20 100 0 93 1 100 20 100 11 0 20 -5 20 -10z"/>
<path d="M464 355 c-28 -28 -27 -64 3 -97 48 -54 125 37 81 94 -24 30 -56 31
-84 3z"/>
<path d="M695 356 c-14 -14 -25 -34 -25 -44 0 -27 38 -72 61 -72 46 0 77 74
47 112 -24 30 -56 31 -83 4z"/>
<path d="M1595 356 c-14 -14 -25 -34 -25 -44 0 -27 38 -72 61 -72 46 0 77 74
47 112 -24 30 -56 31 -83 4z"/>
<path d="M2197 362 c-26 -28 -21 -32 33 -32 54 0 69 19 31 40 -28 15 -46 12
-64 -8z"/>
</g>
</svg>
