<svg width="24" height="24" viewBox="0 0 24 24" fill="none" xmlns="http://www.w3.org/2000/svg">
<mask id="mask0_2166_2214" style="mask-type:alpha" maskUnits="userSpaceOnUse" x="0" y="0" width="24" height="24">
<rect y="24" width="24" height="24" transform="rotate(-90 0 24)" fill="#D9D9D9"/>
</mask>
<g mask="url(#mask0_2166_2214)">
<path d="M12.3167 13.2002L16.036 9.3002C16.2108 9.11686 16.4334 9.0252 16.7036 9.0252C16.9738 9.0252 17.1963 9.11686 17.3711 9.3002C17.546 9.48353 17.6334 9.71686 17.6334 10.0002C17.6334 10.2835 17.546 10.5169 17.3711 10.7002L12.9843 15.3002C12.8889 15.4002 12.7856 15.471 12.6743 15.5127C12.5631 15.5544 12.4439 15.5752 12.3167 15.5752C12.1895 15.5752 12.0703 15.5544 11.9591 15.5127C11.8478 15.471 11.7445 15.4002 11.6491 15.3002L7.26226 10.7002C7.08742 10.5169 7 10.2835 7 10.0002C7 9.71686 7.08742 9.48353 7.26226 9.3002C7.4371 9.11686 7.65962 9.0252 7.92983 9.0252C8.20003 9.0252 8.42255 9.11686 8.59739 9.3002L12.3167 13.2002Z" fill="#343434"/>
</g>
</svg>
