<svg width="18" height="18" viewBox="0 0 18 18" fill="none" xmlns="http://www.w3.org/2000/svg">
<path d="M15.75 12.0675V8.3235C15.75 5.106 15.75 3.49875 14.7615 2.499C13.773 1.5 12.1815 1.5 9 1.5C5.81775 1.5 4.227 1.5 3.2385 2.499C2.25 3.49875 2.25 5.1075 2.25 8.3235V12.0682C2.25 14.3902 2.25 15.552 2.8005 16.059C3.063 16.3013 3.3945 16.4535 3.74775 16.494C4.488 16.5788 5.35275 15.8137 7.0815 14.2845C7.8465 13.6087 8.22825 13.2705 8.67 13.182C8.8875 13.137 9.1125 13.137 9.33 13.182C9.7725 13.2705 10.1542 13.6087 10.9185 14.2845C12.6472 15.8137 13.512 16.5787 14.2523 16.4932C14.6048 16.4535 14.937 16.3013 15.1995 16.059C15.75 15.552 15.75 14.3903 15.75 12.0675Z" stroke="#343434" stroke-width="1.5"/>
<path opacity="0.5" d="M11.25 4.5H6.75" stroke="#343434" stroke-width="1.5" stroke-linecap="round"/>
</svg>
