<svg width="32" height="32" viewBox="0 0 32 32" fill="none" xmlns="http://www.w3.org/2000/svg">
<path fill-rule="evenodd" clip-rule="evenodd" d="M28 14.7974V21.4547C28 25.5827 28 27.6481 27.0213 28.5494C26.5547 28.9801 25.9653 29.2507 25.3373 29.3227C24.0213 29.4734 22.484 28.1134 19.4107 25.3947C18.0507 24.1934 17.372 23.5921 16.5867 23.4347C16.1995 23.3566 15.8005 23.3566 15.4133 23.4347C14.6267 23.5921 13.948 24.1934 12.5893 25.3947C9.516 28.1134 7.97867 29.4734 6.66267 29.3214C6.03365 29.2493 5.44388 28.9789 4.97867 28.5494C4 27.6481 4 25.5841 4 21.4547V14.7961C4 9.08008 4 6.22141 5.75733 4.44408C7.51467 2.66675 10.344 2.66675 16 2.66675C21.6573 2.66675 24.4853 2.66675 26.2427 4.44275C28 6.22008 28 9.08008 28 14.7974ZM11 8.00008C11 7.73487 11.1054 7.48051 11.2929 7.29297C11.4804 7.10544 11.7348 7.00008 12 7.00008H20C20.2652 7.00008 20.5196 7.10544 20.7071 7.29297C20.8946 7.48051 21 7.73487 21 8.00008C21 8.2653 20.8946 8.51965 20.7071 8.70719C20.5196 8.89472 20.2652 9.00008 20 9.00008H12C11.7348 9.00008 11.4804 8.89472 11.2929 8.70719C11.1054 8.51965 11 8.2653 11 8.00008Z" fill="#FA9E31"/>
</svg>
