<svg width="32" height="32" viewBox="0 0 32 32" fill="none" xmlns="http://www.w3.org/2000/svg">
<path d="M28 21.4533V14.7973C28 9.07729 28 6.21996 26.2427 4.44263C24.4853 2.66663 21.656 2.66663 16 2.66663C10.3427 2.66663 7.51467 2.66663 5.75733 4.44263C4 6.21996 4 9.07996 4 14.7973V21.4546C4 25.5826 4 27.648 4.97867 28.5493C5.44533 28.98 6.03467 29.2506 6.66267 29.3226C7.97867 29.4733 9.516 28.1133 12.5893 25.3946C13.9493 24.1933 14.628 23.592 15.4133 23.4346C15.8 23.3546 16.2 23.3546 16.5867 23.4346C17.3733 23.592 18.052 24.1933 19.4107 25.3946C22.484 28.1133 24.0213 29.4733 25.3373 29.3213C25.964 29.2506 26.5547 28.98 27.0213 28.5493C28 27.648 28 25.5826 28 21.4533Z" stroke="#343434" stroke-width="2"/>
<path opacity="0.5" d="M20 8H12" stroke="#343434" stroke-width="1.5" stroke-linecap="round"/>
</svg>
